ply
format ascii 1.0
element vertex 200
property float x
property float y
property float z
property float nx
property float ny
property float nz
end_header
0.66498482 0.10549545 0.73936862 0.66498482 0.10549545 0.73936862
-0.07137483 0.91510111 0.39685711 -0.07137483 0.91510111 0.39685711
-0.91313118 0.21183547 0.34830615 -0.91313118 0.21183547 0.34830615
0.97986054 0.19327348 0.05018647 0.97986054 0.19327348 0.05018647
-0.70357049 -0.64157057 0.30557445 -0.70357049 -0.64157057 0.30557445
-0.23741609 -0.49093986 0.83821934 -0.23741609 -0.49093986 0.83821934
-0.01234881 -0.60126269 -0.79895598 -0.01234881 -0.60126269 -0.79895598
-0.92460269 -0.09663837 -0.36847106 -0.92460269 -0.09663837 -0.36847106
-0.41177732 -0.31505626 -0.85509008 -0.41177732 -0.31505626 -0.85509008
-0.36274534 0.27750543 0.88961035 -0.36274534 0.27750543 0.88961035
0.96078616 0.25476742 -0.10946907 0.96078616 0.25476742 -0.10946907
0.75780439 0.55022699 0.35068893 0.75780439 0.55022699 0.35068893
-0.41097048 -0.60469139 0.68224013 -0.41097048 -0.60469139 0.68224013
0.18880469 -0.00527410 0.98200047 0.18880469 -0.00527410 0.98200047
0.73287451 0.07301065 -0.67643511 0.73287451 0.07301065 -0.67643511
-0.74888968 -0.28343090 0.59902519 -0.74888968 -0.28343090 0.59902519
0.00400666 -0.63213760 0.77484578 0.00400666 -0.63213760 0.77484578
0.20003982 -0.38200834 -0.90224922 0.20003982 -0.38200834 -0.90224922
-0.82674313 -0.24134573 0.50818110 -0.82674313 -0.24134573 0.50818110
-0.69786662 -0.65464741 -0.29054937 -0.69786662 -0.65464741 -0.29054937
-0.31367734 -0.90182179 0.29719359 -0.31367734 -0.90182179 0.29719359
0.63215625 -0.77433139 0.02809639 0.63215625 -0.77433139 0.02809639
0.63059336 0.60947257 -0.48051551 0.63059336 0.60947257 -0.48051551
0.61166644 -0.30595809 -0.72955728 0.61166644 -0.30595809 -0.72955728
0.63414621 0.10459866 -0.76610553 0.63414621 0.10459866 -0.76610553
0.31382525 -0.52163464 -0.79335427 0.31382525 -0.52163464 -0.79335427
0.85168159 0.44575110 0.27558008 0.85168159 0.44575110 0.27558008
0.32553214 0.89761567 -0.29717830 0.32553214 0.89761567 -0.29717830
0.82365483 0.02015691 -0.56673312 0.82365483 0.02015691 -0.56673312
-0.86933964 0.31139851 0.38377020 -0.86933964 0.31139851 0.38377020
-0.46894318 0.80027574 0.37369913 -0.46894318 0.80027574 0.37369913
0.50211394 0.86124617 0.07833658 0.50211394 0.86124617 0.07833658
-0.47009453 0.14919089 0.86991560 -0.47009453 0.14919089 0.86991560
-0.79592121 0.56034797 -0.22917154 -0.79592121 0.56034797 -0.22917154
0.08203612 -0.73624337 0.67172593 0.08203612 -0.73624337 0.67172593
0.41277042 -0.32801601 -0.84972119 0.41277042 -0.32801601 -0.84972119
-0.50423682 -0.71810126 0.47966218 -0.50423682 -0.71810126 0.47966218
0.15168211 0.15056239 0.97689486 0.15168211 0.15056239 0.97689486
-0.20278135 0.69163460 0.69319642 -0.20278135 0.69163460 0.69319642
0.84438908 -0.51148921 0.15932944 0.84438908 -0.51148921 0.15932944
0.82083666 0.51180917 0.25353214 0.82083666 0.51180917 0.25353214
-0.79688710 0.52808630 -0.29342091 -0.79688710 0.52808630 -0.29342091
0.87310529 -0.32989001 0.35897043 0.87310529 -0.32989001 0.35897043
0.80106682 -0.25658777 0.54079074 0.80106682 -0.25658777 0.54079074
-0.07135021 0.04452719 0.99645698 -0.07135021 0.04452719 0.99645698
-0.49596497 -0.86821169 -0.01507417 -0.49596497 -0.86821169 -0.01507417
-0.46216470 0.12879166 -0.87739187 -0.46216470 0.12879166 -0.87739187
0.02133820 -0.98121846 0.19171590 0.02133820 -0.98121846 0.19171590
0.63492537 0.12766917 -0.76195168 0.63492537 0.12766917 -0.76195168
0.53062689 0.67665023 -0.51046991 0.53062689 0.67665023 -0.51046991
-0.70787793 -0.61777306 -0.34244019 -0.70787793 -0.61777306 -0.34244019
0.09702828 0.88152498 0.46205974 0.09702828 0.88152498 0.46205974
-0.38991442 -0.66937101 -0.63238376 -0.38991442 -0.66937101 -0.63238376
-0.44175643 0.59830332 -0.66849411 -0.44175643 0.59830332 -0.66849411
0.31370163 -0.27085260 -0.91007149 0.31370163 -0.27085260 -0.91007149
0.28051215 -0.60339105 0.74647987 0.28051215 -0.60339105 0.74647987
-0.92114168 0.04148070 0.38701084 -0.92114168 0.04148070 0.38701084
0.05614876 -0.38762134 -0.92010707 0.05614876 -0.38762134 -0.92010707
-0.04391328 0.32869291 -0.94341540 -0.04391328 0.32869291 -0.94341540
-0.99244493 0.03580993 0.11734860 -0.99244493 0.03580993 0.11734860
0.29177195 0.85188264 -0.43493119 0.29177195 0.85188264 -0.43493119
0.62958223 -0.75246412 0.19345270 0.62958223 -0.75246412 0.19345270
0.43933252 -0.88875222 -0.13079165 0.43933252 -0.88875222 -0.13079165
0.43473622 -0.30696955 0.84662515 0.43473622 -0.30696955 0.84662515
0.65016019 -0.63023144 -0.42438197 0.65016019 -0.63023144 -0.42438197
0.90368712 -0.23447257 0.35829073 0.90368712 -0.23447257 0.35829073
0.06136917 0.44806650 -0.89189136 0.06136917 0.44806650 -0.89189136
0.37369230 -0.17064221 0.91172105 0.37369230 -0.17064221 0.91172105
-0.24770470 -0.11887561 0.96151495 -0.24770470 -0.11887561 0.96151495
-0.77617973 0.41099671 0.47814927 -0.77617973 0.41099671 0.47814927
-0.92665809 -0.36941046 -0.06957506 -0.92665809 -0.36941046 -0.06957506
-0.45530170 0.69216013 -0.56001312 -0.45530170 0.69216013 -0.56001312
-0.18724503 0.75780833 0.62503266 -0.18724503 0.75780833 0.62503266
0.04806745 0.87990707 0.47270820 0.04806745 0.87990707 0.47270820
0.72212398 0.41145933 -0.55609190 0.72212398 0.41145933 -0.55609190
-0.99499691 0.02147874 -0.09756941 -0.99499691 0.02147874 -0.09756941
0.75936216 -0.64640033 -0.07440212 0.75936216 -0.64640033 -0.07440212
-0.51802522 -0.55269748 0.65282112 -0.51802522 -0.55269748 0.65282112
-0.92188394 -0.12220696 0.36768937 -0.92188394 -0.12220696 0.36768937
-0.86330104 0.41560027 0.28633508 -0.86330104 0.41560027 0.28633508
-0.93028206 0.21161811 0.29965484 -0.93028206 0.21161811 0.29965484
0.22484227 0.85948241 -0.45905983 0.22484227 0.85948241 -0.45905983
0.42758712 -0.86679715 -0.25657749 0.42758712 -0.86679715 -0.25657749
0.13304316 0.39573789 -0.90867543 0.13304316 0.39573789 -0.90867543
-0.17048775 -0.80099505 0.57388228 -0.17048775 -0.80099505 0.57388228
0.06213106 -0.98903126 -0.13400356 0.06213106 -0.98903126 -0.13400356
-0.88455331 -0.44978601 -0.12352329 -0.88455331 -0.44978601 -0.12352329
0.56066382 -0.65290302 -0.50928748 0.56066382 -0.65290302 -0.50928748
-0.20758130 0.78687990 -0.58114547 -0.20758130 0.78687990 -0.58114547
0.72444648 -0.66657817 0.17564386 0.72444648 -0.66657817 0.17564386
-0.10900079 -0.83785874 -0.53489399 -0.10900079 -0.83785874 -0.53489399
0.14782825 -0.46743032 -0.87158227 0.14782825 -0.46743032 -0.87158227
-0.43197873 -0.72605336 0.53501481 -0.43197873 -0.72605336 0.53501481
0.55140215 -0.79681647 -0.24706113 0.55140215 -0.79681647 -0.24706113
0.96997666 -0.04208566 -0.23952883 0.96997666 -0.04208566 -0.23952883
-0.86848772 0.47629857 -0.13736343 -0.86848772 0.47629857 -0.13736343
0.30353180 -0.71474153 0.63008964 0.30353180 -0.71474153 0.63008964
-0.03178877 -0.93305510 -0.35832620 -0.03178877 -0.93305510 -0.35832620
-0.81926322 0.24995397 0.51607245 -0.81926322 0.24995397 0.51607245
0.42732206 -0.21118049 0.87908965 0.42732206 -0.21118049 0.87908965
-0.74604386 0.58301312 0.32173640 -0.74604386 0.58301312 0.32173640
-0.90799147 -0.39608285 -0.13663784 -0.90799147 -0.39608285 -0.13663784
0.68313503 0.53640240 0.49557945 0.68313503 0.53640240 0.49557945
0.15108341 0.98492807 -0.08420526 0.15108341 0.98492807 -0.08420526
0.53155476 -0.82955337 -0.17114545 0.53155476 -0.82955337 -0.17114545
-0.79507840 0.60439503 0.05056633 -0.79507840 0.60439503 0.05056633
-0.73248130 0.57495266 -0.36455533 -0.73248130 0.57495266 -0.36455533
0.01543162 0.61097485 -0.79149956 0.01543162 0.61097485 -0.79149956
-0.98402417 0.05191978 -0.17029598 -0.98402417 0.05191978 -0.17029598
0.22635187 -0.61873275 -0.75228626 0.22635187 -0.61873275 -0.75228626
0.77799785 -0.60219306 -0.17911705 0.77799785 -0.60219306 -0.17911705
0.89863765 0.42365623 0.11386744 0.89863765 0.42365623 0.11386744
-0.45279208 -0.23006703 0.86142236 -0.45279208 -0.23006703 0.86142236
-0.36581340 0.07629972 -0.92755532 -0.36581340 0.07629972 -0.92755532
-0.73053032 -0.63821381 0.24291681 -0.73053032 -0.63821381 0.24291681
-0.94224346 0.32408643 -0.08452962 -0.94224346 0.32408643 -0.08452962
-0.22654983 0.16756381 -0.95947772 -0.22654983 0.16756381 -0.95947772
-0.85202968 0.15212163 -0.50090367 -0.85202968 0.15212163 -0.50090367
-0.56245691 -0.31847796 -0.76302952 -0.56245691 -0.31847796 -0.76302952
-0.82410669 -0.00509115 -0.56641173 -0.82410669 -0.00509115 -0.56641173
-0.87895858 0.15542701 -0.45085952 -0.87895858 0.15542701 -0.45085952
0.40529954 -0.89262003 -0.19738732 0.40529954 -0.89262003 -0.19738732
-0.02729492 -0.99793881 0.05807879 -0.02729492 -0.99793881 0.05807879
-0.03416069 0.05281195 -0.99801999 -0.03416069 0.05281195 -0.99801999
0.23018003 -0.69977701 -0.67626131 0.23018003 -0.69977701 -0.67626131
0.35307249 -0.46323502 -0.81286722 0.35307249 -0.46323502 -0.81286722
0.56707424 0.81765336 0.09934680 0.56707424 0.81765336 0.09934680
-0.81576598 -0.46654502 -0.34185025 -0.81576598 -0.46654502 -0.34185025
-0.21902260 0.97090667 0.09679547 -0.21902260 0.97090667 0.09679547
-0.05648756 -0.82902354 -0.55635339 -0.05648756 -0.82902354 -0.55635339
0.02165119 0.30675787 -0.95154130 0.02165119 0.30675787 -0.95154130
-0.22272341 -0.41373339 0.88273382 -0.22272341 -0.41373339 0.88273382
-0.02000956 0.62121618 -0.78338379 -0.02000956 0.62121618 -0.78338379
-0.66399837 -0.04656818 -0.74628252 -0.66399837 -0.04656818 -0.74628252
0.67080593 -0.22428285 -0.70690632 0.67080593 -0.22428285 -0.70690632
-0.19913650 0.18394642 0.96255302 -0.19913650 0.18394642 0.96255302
0.69043118 -0.68405342 0.23532048 0.69043118 -0.68405342 0.23532048
0.97208917 -0.07991944 0.22057991 0.97208917 -0.07991944 0.22057991
0.16186576 -0.16216943 0.97339642 0.16186576 -0.16216943 0.97339642
0.28640229 0.49035001 -0.82312244 0.28640229 0.49035001 -0.82312244
0.13362283 -0.28555307 0.94900179 0.13362283 -0.28555307 0.94900179
0.78956985 0.16169894 -0.59197372 0.78956985 0.16169894 -0.59197372
-0.75946301 0.60218734 0.24614301 -0.75946301 0.60218734 0.24614301
0.67905527 -0.71647567 -0.15983286 0.67905527 -0.71647567 -0.15983286
-0.36515149 -0.90155178 -0.23209637 -0.36515149 -0.90155178 -0.23209637
-0.49540928 -0.10337506 0.86248666 -0.49540928 -0.10337506 0.86248666
-0.54294193 0.46157268 -0.70154452 -0.54294193 0.46157268 -0.70154452
0.04124765 -0.09994110 0.99413800 0.04124765 -0.09994110 0.99413800
-0.24392021 -0.93918043 -0.24174988 -0.24392021 -0.93918043 -0.24174988
-0.93595630 0.18828139 0.29754981 -0.93595630 0.18828139 0.29754981
0.27507660 -0.22042237 0.93581349 0.27507660 -0.22042237 0.93581349
0.05855314 0.46228153 -0.88479787 0.05855314 0.46228153 -0.88479787
0.25591901 0.46823967 0.84572875 0.25591901 0.46823967 0.84572875
-0.61798888 -0.77440059 0.13562277 -0.61798888 -0.77440059 0.13562277
0.89853412 -0.15976267 0.40879375 0.89853412 -0.15976267 0.40879375
0.01228177 0.71243399 -0.70163161 0.01228177 0.71243399 -0.70163161
0.00206645 0.99776590 0.06677486 0.00206645 0.99776590 0.06677486
0.60008371 0.72074372 0.34702742 0.60008371 0.72074372 0.34702742
0.63769275 -0.76530439 -0.08750539 0.63769275 -0.76530439 -0.08750539
0.10694275 0.71583682 -0.69002962 0.10694275 0.71583682 -0.69002962
-0.85895604 -0.01715673 -0.51176184 -0.85895604 -0.01715673 -0.51176184
0.70426422 -0.04043383 0.70878559 0.70426422 -0.04043383 0.70878559
0.36381006 0.02780668 -0.93105799 0.36381006 0.02780668 -0.93105799
-0.85194874 -0.31573704 0.41772416 -0.85194874 -0.31573704 0.41772416
-0.04923268 -0.00380904 0.99878007 -0.04923268 -0.00380904 0.99878007
0.06087165 -0.16125336 -0.98503399 0.06087165 -0.16125336 -0.98503399
-0.45160311 0.58008146 -0.67790866 -0.45160311 0.58008146 -0.67790866
-0.79253781 0.50057858 0.34828860 -0.79253781 0.50057858 0.34828860
0.23417681 0.41319361 -0.88001835 0.23417681 0.41319361 -0.88001835
-0.05673993 -0.98210573 0.17957997 -0.05673993 -0.98210573 0.17957997
0.20117518 -0.90780199 0.36800021 0.20117518 -0.90780199 0.36800021
0.64320225 0.74512529 0.17629270 0.64320225 0.74512529 0.17629270
-0.75513327 0.59755594 -0.26963058 -0.75513327 0.59755594 -0.26963058
0.71857232 -0.57268894 0.39456460 0.71857232 -0.57268894 0.39456460
0.98191404 0.01670427 0.18858886 0.98191404 0.01670427 0.18858886
-0.24466105 0.77345777 -0.58472568 -0.24466105 0.77345777 -0.58472568
-0.93326044 -0.33627456 0.12627108 -0.93326044 -0.33627456 0.12627108
-0.32538527 0.55741543 0.76381445 -0.32538527 0.55741543 0.76381445
-0.13015880 0.93366230 0.33366656 -0.13015880 0.93366230 0.33366656
-0.96709895 0.24806602 -0.05641698 -0.96709895 0.24806602 -0.05641698
0.38964245 0.84902877 -0.35683179 0.38964245 0.84902877 -0.35683179
-0.55071157 -0.10371051 -0.82822758 -0.55071157 -0.10371051 -0.82822758
-0.23104671 -0.82810396 -0.51074576 -0.23104671 -0.82810396 -0.51074576
-0.18724447 -0.09584334 -0.97762650 -0.18724447 -0.09584334 -0.97762650
0.19153480 0.12686720 0.97325182 0.19153480 0.12686720 0.97325182
0.46499631 -0.68972027 -0.55503547 0.46499631 -0.68972027 -0.55503547
0.35275453 0.69208151 0.62975186 0.35275453 0.69208151 0.62975186
0.06959473 -0.74563509 -0.66271025 0.06959473 -0.74563509 -0.66271025
-0.57709473 0.69256610 -0.43279770 -0.57709473 0.69256610 -0.43279770
0.20164637 -0.96572477 -0.16344537 0.20164637 -0.96572477 -0.16344537
0.25402129 0.90118796 -0.35118866 0.25402129 0.90118796 -0.35118866
0.31098819 0.73975235 0.59670162 0.31098819 0.73975235 0.59670162
-0.40250513 0.00752255 0.91538680 -0.40250513 0.00752255 0.91538680
0.64667094 0.13576774 0.75058895 0.64667094 0.13576774 0.75058895
0.11147213 0.71241897 -0.69284427 0.11147213 0.71241897 -0.69284427
-0.13540222 -0.82185143 0.55337733 -0.13540222 -0.82185143 0.55337733
0.37058011 -0.60572672 -0.70410615 0.37058011 -0.60572672 -0.70410615
0.49162436 0.27344057 0.82676220 0.49162436 0.27344057 0.82676220
0.73737091 -0.67454100 0.03575715 0.73737091 -0.67454100 0.03575715
0.27794868 -0.90313894 -0.32723781 0.27794868 -0.90313894 -0.32723781
